<?xml version="1.0"?>
<svg xmlns="http://www.w3.org/2000/svg" xmlns:xlink="http://www.w3.org/1999/xlink" data-noselect="" viewBox="0 0 800 600" width="1600" height="1200" preserveAspectRatio="none" version="1.1" class="svg-canvas"><defs/> <g id="background" data-noselect=""><rect fill="#FFFFFF" width="800" height="600" data-noselect=""/> <!----></g> <g id="shape_JZfIU9uh3q" transform="translate(183.38646481949343,207.13218760056503) rotate(0,92.867812399435,92.867812399435) scale(1,1)" filter="" style="opacity: 1;"><g><svg xmlns="http://www.w3.org/2000/svg" xmlns:xlink="http://www.w3.org/1999/xlink" version="1.1" x="0px" y="0px" viewBox="38.5 5.789999961853027 423 488.41998291015625" enable-background="new 0 0 500 500" xml:space="preserve" class="style-removed" width="160.85781098022" height="185.73562479887" preserveAspectRatio="none" data-parent="shape_JZfIU9uh3q">
<g id="back">
</g>
<g id="shadow">
</g>
<g id="cards">
</g>
<g id="card_1">
</g>
<g id="logo">
	<path fill="#CCCCCC" d="M148.62,97.1v177.49l-80.53,47.78V142.89L148.62,97.1 M178.21,46.23L38.5,125.67v248.67l139.72-82.89V46.23   L178.21,46.23z" stroke-width="0"/>
	<path fill="#CCCCCC" d="M321.73,325.59l80.58,46.52l-152.44,88l-81.79-46.44L321.73,325.59 M321.79,291.45L108.36,413.8L250,494.21   l211.5-123.34L321.79,291.45L321.79,291.45z" stroke-width="0"/>
	<path fill="#CCCCCC" d="M279.69,56.79l152.21,86.01v93.4L279.6,149.87V55.33 M250,5.79v161.33l211.5,119.87V125.67L250,5.79   L250,5.79z" stroke-width="0"/>
	<path fill="#808080" d="M249.95,39.83l82,46.76l-153.46,87.72l-81-48.06L249.95,39.83 M250,5.79L38.5,125.67l139.72,82.89   L391.64,86.57L250,5.79L250,5.79z" stroke-width="0"/>
	<g>
		<polygon fill="#666666" points="68.09,142.89 148.62,97.1 148.62,97.27 178.21,80.49 178.21,46.48 38.5,125.67 68.09,143.22   " stroke-width="0"/>
		<polygon fill="#666666" points="148.62,156.59 148.62,191 178.21,208.55 178.21,174.15   " stroke-width="0"/>
	</g>
	<g>
		<polygon fill="#666666" points="279.6,149.87 279.6,116.52 250,133.44 250,167.12 250.36,167.32 280.24,150.24   " stroke-width="0"/>
		<polygon fill="#666666" points="362.74,103.08 392.08,86.32 250,5.79 250,39.86   " stroke-width="0"/>
	</g>
	<path fill="#808080" d="M431.91,176.54v177.49l-80.53,47.78V222.32L431.91,176.54 M461.5,125.67l-139.72,79.44v247.67l139.72-81.89   V125.67L461.5,125.67z" stroke-width="0"/>
	<g>
		<polygon fill="#666666" points="431.64,142.65 431.91,142.8 431.91,176.54 431.91,236.2 431.91,270.22 461.5,286.99 461.5,125.67       " stroke-width="0"/>
		<polygon fill="#666666" points="349.37,189.42 321.79,205.11 321.79,207.8 351.38,224.57 351.38,222.32 379.36,206.42   " stroke-width="0"/>
	</g>
	<g>
		<polygon fill="#666666" points="321.79,418.6 321.79,452.77 384.37,416.64 460.45,371.5 431.06,354.53 401.87,371.85     402.31,372.11 369.42,391.1 351.38,401.8 351.38,401.51   " stroke-width="0"/>
		<polygon fill="#666666" points="351.38,342.7 351.38,308.53 321.79,291.45 321.79,325.62   " stroke-width="0"/>
	</g>
	<path fill="#808080" d="M68.09,262.56l152.32,87.46v93.4L68.09,357.1V262.56 M38.5,211.44v162.9L250,494.21V332.89L38.5,211.44   L38.5,211.44z" stroke-width="0"/>
	<g>
		<polygon fill="#666666" points="68.09,322.37 68.09,262.56 68.09,228.43 38.5,211.44 38.5,374.34 68.09,356.78   " stroke-width="0"/>
		<polygon fill="#666666" points="119.32,291.98 148.8,308.9 178.02,291.56 148.55,274.63   " stroke-width="0"/>
	</g>
	<g>
		<polygon fill="#666666" points="250,366.71 250,332.89 249.75,332.74 220.01,349.79 220.41,350.02 220.41,383.68   " stroke-width="0"/>
		<polygon fill="#666666" points="249.87,460.11 220.41,443.38 220.41,443.42 138.08,396.76 108.36,413.8 250,494.21 250,460.04       " stroke-width="0"/>
	</g>
</g>
</svg></g></g><g id="shape_RwMyvYnIc6" transform="translate(283.3623537290764,-33.30252288372503) rotate(0,177.53,312.63727000000006) scale(1,1)" filter="" style="opacity: 1;"><g><svg xmlns="http://www.w3.org/2000/svg" xmlns:xlink="http://www.w3.org/1999/xlink" version="1.1" width="532.12" height="625.2745400000001" viewBox="0 0 532.12 625.2745400000001"><g data-width="177.06" transform="translate(88.53, 0)"><path d="M25.32-68.08L25.32-53.83L33.55-53.83L33.55-48.87L25.32-48.87L25.32-22.75L33.55-24.35L33.55-19.39L25.32-17.79L25.32 9.47Q25.32 11.77 23.77 13.32Q22.22 14.87 19.92 14.87L19.92 14.87L5.31 14.87L2.74 9.92L10.18 9.92Q10.71 9.92 11.11 9.52Q11.51 9.12 11.51 8.59L11.51 8.59L11.51-15.23L2.74-13.55L2.74-18.50L11.51-20.18L11.51-48.87L2.74-48.87L2.74-53.83L11.51-53.83L11.51-68.08L25.32-68.08ZM84.37-40.02L85.79-39.13L85.79-33.82L73.57-38.95Q71.27-39.93 69.85-41.74Q68.43-43.56 67.99-45.95L67.99-45.95L65.69-60.02Q65.51-61.00 64.80-61.57Q64.10-62.15 63.12-62.15L63.12-62.15L57.01-62.15Q54.98-62.15 54.53-60.02L54.53-60.02L51.88-45.86Q51.44-43.56 50.06-41.79Q48.69-40.02 46.48-39.04L46.48-39.04L34.17-33.82L34.17-39.13L35.94-40.10Q37.18-40.81 37.45-42.23L37.45-42.23L40.81-61.44Q41.25-64.01 43.11-65.56Q44.97-67.11 47.54-67.11L47.54-67.11L72.86-67.11Q75.43-67.11 77.29-65.56Q79.15-64.01 79.59-61.44L79.59-61.44L82.95-42.05Q83.22-40.72 84.37-40.02L84.37-40.02ZM81.98-31.96L81.98-27.00L38.16-27.00L38.16-31.96L81.98-31.96ZM42.67-20.18L77.29-20.18Q79.59-20.18 81.14-18.64Q82.69-17.09 82.69-14.78L82.69-14.78L82.69 8.85Q82.69 11.15 81.14 12.70Q79.59 14.25 77.29 14.25L77.29 14.25L42.67 14.25Q40.37 14.25 38.82 12.70Q37.27 11.15 37.27 8.85L37.27 8.85L37.27-14.78Q37.27-17.09 38.82-18.64Q40.37-20.18 42.67-20.18L42.67-20.18ZM68.70 7.97L68.70-13.90Q68.70-14.43 68.30-14.83Q67.90-15.23 67.37-15.23L67.37-15.23L52.59-15.23Q52.06-15.23 51.66-14.83Q51.26-14.43 51.26-13.90L51.26-13.90L51.26 7.97Q51.26 8.50 51.66 8.90Q52.06 9.30 52.59 9.30L52.59 9.30L67.37 9.30Q67.90 9.30 68.30 8.90Q68.70 8.50 68.70 7.97L68.70 7.97Z" transform="translate(0 341.63727000000006) " fill="rgb(49, 49, 49)" stroke="rgb(49, 49, 49)" stroke-width="0.148" data-glyph-w="88.53" data-glyph-h="92.69091" data-glyph-ascender="76.04727" data-glyph-descender="-16.64364"/><path d="M13.37-45.95L2.74-57.37L15.23-57.37L5.05-68.35L19.92-68.35L30.54-56.92L18.06-56.92L28.24-45.95L13.37-45.95ZM38.95-31.78L38.95-49.05L31.78-47.63L31.78-52.76L38.95-54.18L38.95-68.08L52.94-68.08L52.94-57.01L83.40-63.21L83.40-58.08L52.94-51.88L52.94-32.67Q52.94-32.14 53.34-31.74Q53.74-31.34 54.27-31.34L54.27-31.34L85.79-31.34L83.13-26.38L44.35-26.38Q42.05-26.38 40.50-27.93Q38.95-29.48 38.95-31.78L38.95-31.78ZM26.29-37.98L16.73-24.70L2.74-24.70L13.81-38.24Q14.87-39.48 15.63-40.33Q16.38-41.17 17.71-41.61L17.71-41.61L30.10-45.33L30.10-40.10L28.06-39.40Q27.53-39.13 27.05-38.78Q26.56-38.42 26.29-37.98L26.29-37.98ZM85.61-12.04L51.26-12.04L51.26 14.87L37.45 14.87L37.45-12.04L2.92-12.04L2.92-16.91L37.45-16.91L37.45-23.11L51.26-23.11L51.26-16.91L85.61-16.91L85.61-12.04ZM12.57 6.11L20.45-7.35L34.53-7.35L26.20 6.99Q24.88 9.47 22.04 10.00L22.04 10.00L2.83 14.25L2.83 9.38L10.71 7.53Q12.04 7.26 12.57 6.11L12.57 6.11ZM68.08-7.35L75.87 6.11Q76.58 7.26 77.91 7.53L77.91 7.53L85.70 9.38L85.70 14.25L66.40 10.00Q63.74 9.47 62.41 6.99L62.41 6.99L53.91-7.35L68.08-7.35Z" transform="translate(88.53 341.63727000000006) " fill="rgb(49, 49, 49)" stroke="rgb(49, 49, 49)" stroke-width="0.148" data-glyph-w="88.53" data-glyph-h="92.69091" data-glyph-ascender="76.04727" data-glyph-descender="-16.64364"/></g></svg></g></g><g id="shape_I14yRV7qIA" transform="translate(340.0235351805064,222.30525288372502) rotate(0,156.59,132.36) scale(1,1)" filter="" style="opacity: 1;"><g><svg xmlns="http://www.w3.org/2000/svg" xmlns:xlink="http://www.w3.org/1999/xlink" version="1.1" width="386.36" height="264.72" viewBox="0 0 386.36 264.72"><g data-width="239.22541999999999" transform="translate(36.59, 0)"><path d="M18.08-14.71Q20.05-14.71 21.73-13.72Q23.42-12.73 24.41-11.05Q25.39-9.37 25.39-7.35L25.39-7.35Q25.39-5.34 24.41-3.66Q23.42-1.98 21.73-0.99Q20.05 0 18.08 0L18.08 0L2.27 0L2.27-3.95L16.10-3.95Q17.53-3.95 18.53-4.94Q19.54-5.93 19.54-7.35L19.54-7.35Q19.54-8.78 18.53-9.77Q17.53-10.76 16.10-10.76L16.10-10.76L8.45-10.76Q6.48-10.76 4.83-11.73Q3.18-12.70 2.21-14.36Q1.24-16.03 1.24-17.97L1.24-17.97Q1.24-19.94 2.21-21.59Q3.18-23.23 4.83-24.20Q6.48-25.17 8.45-25.17L8.45-25.17L23.93-25.17L23.93-21.26L10.39-21.26Q9.04-21.26 8.07-20.29Q7.10-19.32 7.10-17.97L7.10-17.97Q7.10-16.61 8.07-15.66Q9.04-14.71 10.39-14.71L10.39-14.71L18.08-14.71Z" transform="translate(0 146.36) " fill="rgb(49, 49, 49)" stroke="rgb(49, 49, 49)" stroke-width="0.061" data-glyph-w="26.63752" data-glyph-h="43.908" data-glyph-ascender="36.59" data-glyph-descender="-7.318"/><path d="M12.04-21.26Q10.79-21.26 9.71-20.64Q8.64-20.01 7.99-18.94Q7.35-17.86 7.35-16.58L7.35-16.58L7.35-14.56L25.65-14.56L25.65-10.65L7.35-10.65L7.35-8.64Q7.35-7.35 7.99-6.28Q8.64-5.20 9.71-4.57Q10.79-3.95 12.04-3.95L12.04-3.95L25.65-3.95L25.65 0L10.10 0Q7.76 0 5.78-1.17Q3.81-2.34 2.65-4.32Q1.50-6.29 1.50-8.64L1.50-8.64L1.50-16.58Q1.50-18.92 2.65-20.89Q3.81-22.87 5.78-24.02Q7.76-25.17 10.10-25.17L10.10-25.17L25.65-25.17L25.65-21.26L12.04-21.26Z" transform="translate(26.63752 146.36) " fill="rgb(49, 49, 49)" stroke="rgb(49, 49, 49)" stroke-width="0.061" data-glyph-w="27.14978" data-glyph-h="43.908" data-glyph-ascender="36.59" data-glyph-descender="-7.318"/><path d="M12.37-8.12L18.59-25.21L24.44-25.21L15.29 0L9.40 0L0.26-25.21L6.15-25.21L12.37-8.12Z" transform="translate(53.7873 146.36) " fill="rgb(49, 49, 49)" stroke="rgb(49, 49, 49)" stroke-width="0.061" data-glyph-w="24.69825" data-glyph-h="43.908" data-glyph-ascender="36.59" data-glyph-descender="-7.318"/><path d="M12.04-21.26Q10.79-21.26 9.71-20.64Q8.64-20.01 7.99-18.94Q7.35-17.86 7.35-16.58L7.35-16.58L7.35-14.56L25.65-14.56L25.65-10.65L7.35-10.65L7.35-8.64Q7.35-7.35 7.99-6.28Q8.64-5.20 9.71-4.57Q10.79-3.95 12.04-3.95L12.04-3.95L25.65-3.95L25.65 0L10.10 0Q7.76 0 5.78-1.17Q3.81-2.34 2.65-4.32Q1.50-6.29 1.50-8.64L1.50-8.64L1.50-16.58Q1.50-18.92 2.65-20.89Q3.81-22.87 5.78-24.02Q7.76-25.17 10.10-25.17L10.10-25.17L25.65-25.17L25.65-21.26L12.04-21.26Z" transform="translate(78.48555 146.36) " fill="rgb(49, 49, 49)" stroke="rgb(49, 49, 49)" stroke-width="0.061" data-glyph-w="27.14978" data-glyph-h="43.908" data-glyph-ascender="36.59" data-glyph-descender="-7.318"/><path d="M19.80-8.05L19.80-25.17L25.65-25.17L25.65 0L19.80 0L7.35-17.12L7.35 0L1.50 0L1.50-25.17L7.35-25.17L19.80-8.05Z" transform="translate(105.63533000000001 146.36) " fill="rgb(49, 49, 49)" stroke="rgb(49, 49, 49)" stroke-width="0.061" data-glyph-w="27.14978" data-glyph-h="43.908" data-glyph-ascender="36.59" data-glyph-descender="-7.318"/><path d="M0.40-25.21L24.59-25.21L24.59-21.26L15.44-21.26L15.44 0L9.55 0L9.55-21.26L0.40-21.26L0.40-25.21Z" transform="translate(132.78511 146.36) " fill="rgb(49, 49, 49)" stroke="rgb(49, 49, 49)" stroke-width="0.061" data-glyph-w="24.99097" data-glyph-h="43.908" data-glyph-ascender="36.59" data-glyph-descender="-7.318"/><path d="M12.04-21.26Q10.79-21.26 9.71-20.64Q8.64-20.01 7.99-18.94Q7.35-17.86 7.35-16.58L7.35-16.58L7.35-14.56L25.65-14.56L25.65-10.65L7.35-10.65L7.35-8.64Q7.35-7.35 7.99-6.28Q8.64-5.20 9.71-4.57Q10.79-3.95 12.04-3.95L12.04-3.95L25.65-3.95L25.65 0L10.10 0Q7.76 0 5.78-1.17Q3.81-2.34 2.65-4.32Q1.50-6.29 1.50-8.64L1.50-8.64L1.50-16.58Q1.50-18.92 2.65-20.89Q3.81-22.87 5.78-24.02Q7.76-25.17 10.10-25.17L10.10-25.17L25.65-25.17L25.65-21.26L12.04-21.26Z" transform="translate(157.77608 146.36) " fill="rgb(49, 49, 49)" stroke="rgb(49, 49, 49)" stroke-width="0.061" data-glyph-w="27.14978" data-glyph-h="43.908" data-glyph-ascender="36.59" data-glyph-descender="-7.318"/><path d="M12.04-21.26Q10.79-21.26 9.71-20.64Q8.64-20.01 7.99-18.94Q7.35-17.86 7.35-16.58L7.35-16.58L7.35-14.56L25.65-14.56L25.65-10.65L7.35-10.65L7.35-8.64Q7.35-7.35 7.99-6.28Q8.64-5.20 9.71-4.57Q10.79-3.95 12.04-3.95L12.04-3.95L25.65-3.95L25.65 0L10.10 0Q7.76 0 5.78-1.17Q3.81-2.34 2.65-4.32Q1.50-6.29 1.50-8.64L1.50-8.64L1.50-16.58Q1.50-18.92 2.65-20.89Q3.81-22.87 5.78-24.02Q7.76-25.17 10.10-25.17L10.10-25.17L25.65-25.17L25.65-21.26L12.04-21.26Z" transform="translate(184.92586 146.36) " fill="rgb(49, 49, 49)" stroke="rgb(49, 49, 49)" stroke-width="0.061" data-glyph-w="27.14978" data-glyph-h="43.908" data-glyph-ascender="36.59" data-glyph-descender="-7.318"/><path d="M19.80-8.05L19.80-25.17L25.65-25.17L25.65 0L19.80 0L7.35-17.12L7.35 0L1.50 0L1.50-25.17L7.35-25.17L19.80-8.05Z" transform="translate(212.07564 146.36) " fill="rgb(49, 49, 49)" stroke="rgb(49, 49, 49)" stroke-width="0.061" data-glyph-w="27.14978" data-glyph-h="43.908" data-glyph-ascender="36.59" data-glyph-descender="-7.318"/></g></svg></g></g></svg>
